<svg xmlns="http://www.w3.org/2000/svg" xmlns:xlink="http://www.w3.org/1999/xlink" version="1.1" width="256" height="256" viewBox="0 0 256 256" xml:space="preserve">
<desc>Created with Fabric.js 1.7.22</desc>
<defs>
</defs>
<g transform="translate(128 128) scale(0.72 0.72)" style="">
	<g style="stroke: none; stroke-width: 0; stroke-dasharray: none; stroke-linecap: butt; stroke-linejoin: miter; stroke-miterlimit: 10; fill: none; fill-rule: nonzero; opacity: 1;" transform="translate(-175.05 -175.05000000000004) scale(3.89 3.89)" >
	<path d="M 77.307 20.733 H 62.35 c -2.358 0 -4.276 -1.919 -4.276 -4.277 V 1.5 h 3 v 14.956 c 0 0.704 0.572 1.277 1.276 1.277 h 14.957 V 20.733 z" style="stroke: none; stroke-width: 1; stroke-dasharray: none; stroke-linecap: butt; stroke-linejoin: miter; stroke-miterlimit: 10; fill: rgb(0,0,0); fill-rule: nonzero; opacity: 1;" transform=" matrix(1 0 0 1 0 0) " stroke-linecap="round" />
	<path d="M 74.258 90 H 15.742 c -2.508 0 -4.548 -2.04 -4.548 -4.548 V 4.548 C 11.194 2.04 13.234 0 15.742 0 h 42.569 c 1.215 0 2.357 0.473 3.216 1.332 L 77.474 17.28 c 0.859 0.858 1.333 2.001 1.333 3.216 v 64.957 C 78.807 87.96 76.766 90 74.258 90 z M 15.742 3 c -0.854 0 -1.548 0.694 -1.548 1.548 v 80.904 c 0 0.854 0.694 1.548 1.548 1.548 h 58.516 c 0.854 0 1.549 -0.694 1.549 -1.548 V 20.496 c 0 -0.413 -0.161 -0.802 -0.454 -1.094 L 59.405 3.453 C 59.117 3.165 58.718 3 58.311 3 H 15.742 z" style="stroke: none; stroke-width: 1; stroke-dasharray: none; stroke-linecap: butt; stroke-linejoin: miter; stroke-miterlimit: 10; fill: rgb(0,0,0); fill-rule: nonzero; opacity: 1;" transform=" matrix(1 0 0 1 0 0) " stroke-linecap="round" />
	<rect x="12.69" y="53.93" rx="0" ry="0" width="64.61" height="3" style="stroke: none; stroke-width: 1; stroke-dasharray: none; stroke-linecap: butt; stroke-linejoin: miter; stroke-miterlimit: 10; fill: rgb(0,0,0); fill-rule: nonzero; opacity: 1;" transform=" matrix(1 0 0 1 0 0) "/>
	<path d="M 29.223 80.373 h -4.552 c -2.024 0 -3.671 -1.646 -3.671 -3.671 v -8.367 c 0 -2.024 1.647 -3.671 3.671 -3.671 h 4.552 c 0.829 0 1.5 0.672 1.5 1.5 s -0.671 1.5 -1.5 1.5 h -4.552 c -0.37 0 -0.671 0.301 -0.671 0.671 v 8.367 c 0 0.37 0.301 0.671 0.671 0.671 h 4.552 c 0.829 0 1.5 0.672 1.5 1.5 S 30.052 80.373 29.223 80.373 z" style="stroke: none; stroke-width: 1; stroke-dasharray: none; stroke-linecap: butt; stroke-linejoin: miter; stroke-miterlimit: 10; fill: rgb(0,0,0); fill-rule: nonzero; opacity: 1;" transform=" matrix(1 0 0 1 0 0) " stroke-linecap="round" />
	<path d="M 39.423 80.373 h -4.849 c -0.829 0 -1.5 -0.672 -1.5 -1.5 s 0.671 -1.5 1.5 -1.5 h 4.849 c 0.207 0 0.375 -0.168 0.375 -0.374 v -2.605 c 0 -0.207 -0.168 -0.375 -0.375 -0.375 h -2.975 c -1.861 0 -3.375 -1.514 -3.375 -3.374 v -2.605 c 0 -1.861 1.514 -3.375 3.375 -3.375 h 3.301 c 0.829 0 1.5 0.672 1.5 1.5 s -0.671 1.5 -1.5 1.5 h -3.301 c -0.207 0 -0.375 0.168 -0.375 0.375 v 2.605 c 0 0.206 0.168 0.374 0.375 0.374 h 2.975 c 1.861 0 3.375 1.514 3.375 3.375 v 2.605 C 42.798 78.859 41.284 80.373 39.423 80.373 z" style="stroke: none; stroke-width: 1; stroke-dasharray: none; stroke-linecap: butt; stroke-linejoin: miter; stroke-miterlimit: 10; fill: rgb(0,0,0); fill-rule: nonzero; opacity: 1;" transform=" matrix(1 0 0 1 0 0) " stroke-linecap="round" />
	<path d="M 51.672 80.373 h -4.849 c -0.829 0 -1.5 -0.672 -1.5 -1.5 s 0.671 -1.5 1.5 -1.5 h 4.849 c 0.206 0 0.374 -0.168 0.374 -0.374 v -2.605 c 0 -0.207 -0.168 -0.375 -0.374 -0.375 h -2.975 c -1.86 0 -3.374 -1.514 -3.374 -3.374 v -2.605 c 0 -1.861 1.514 -3.375 3.374 -3.375 h 3.301 c 0.828 0 1.5 0.672 1.5 1.5 s -0.672 1.5 -1.5 1.5 h -3.301 c -0.206 0 -0.374 0.168 -0.374 0.375 v 2.605 c 0 0.206 0.168 0.374 0.374 0.374 h 2.975 c 1.86 0 3.374 1.514 3.374 3.375 v 2.605 C 55.046 78.859 53.532 80.373 51.672 80.373 z" style="stroke: none; stroke-width: 1; stroke-dasharray: none; stroke-linecap: butt; stroke-linejoin: miter; stroke-miterlimit: 10; fill: rgb(0,0,0); fill-rule: nonzero; opacity: 1;" transform=" matrix(1 0 0 1 0 0) " stroke-linecap="round" />
	<path d="M 65.329 80.373 h -4.553 c -0.828 0 -1.5 -0.672 -1.5 -1.5 s 0.672 -1.5 1.5 -1.5 h 4.553 c 0.37 0 0.671 -0.301 0.671 -0.671 v -8.367 c 0 -0.37 -0.301 -0.671 -0.671 -0.671 h -4.553 c -0.828 0 -1.5 -0.672 -1.5 -1.5 s 0.672 -1.5 1.5 -1.5 h 4.553 c 2.024 0 3.671 1.646 3.671 3.671 v 8.367 C 69 78.727 67.354 80.373 65.329 80.373 z" style="stroke: none; stroke-width: 1; stroke-dasharray: none; stroke-linecap: butt; stroke-linejoin: miter; stroke-miterlimit: 10; fill: rgb(0,0,0); fill-rule: nonzero; opacity: 1;" transform=" matrix(1 0 0 1 0 0) " stroke-linecap="round" />
	<path d="M 67.5 74.019 h -6.724 c -0.828 0 -1.5 -0.672 -1.5 -1.5 s 0.672 -1.5 1.5 -1.5 H 67.5 c 0.828 0 1.5 0.672 1.5 1.5 S 68.328 74.019 67.5 74.019 z" style="stroke: none; stroke-width: 1; stroke-dasharray: none; stroke-linecap: butt; stroke-linejoin: miter; stroke-miterlimit: 10; fill: rgb(0,0,0); fill-rule: nonzero; opacity: 1;" transform=" matrix(1 0 0 1 0 0) " stroke-linecap="round" />
</g>
</g>
</svg>